Coordinates
version=1
nRows=38
nColumns=12
inDegrees=yes

Units are S.I. units (second, meters, Newtons, ...)
Angles are in degrees

endheader
time	SC_y	SC_z	SC_x	AC_y	AC_z	AC_x	GH_y	GH_z	GH_yy	EL_x	PS_y
       0.0              -36.69          1.876          48.28          58.57         -15.09          3.055         -40.32          20.52         -160.4          121.1          18.39
   0.03832              -36.69          1.876          48.28          58.57         -15.09          3.053         -40.29          20.51         -160.3          121.1           18.4
   0.07664              -36.68          1.876          48.28          58.57         -15.08           3.05         -40.26          20.51         -160.3          121.1          18.41
     0.115              -36.68          1.876          48.29          58.57         -15.08          3.048         -40.22          20.51         -160.3          121.1          18.42
    0.1533              -36.68          1.876          48.29          58.57         -15.08          3.045         -40.18           20.5         -160.2          121.1          18.43
    0.1916              -36.67          1.876          48.29          58.57         -15.07          3.042         -40.14           20.5         -160.2          121.1          18.44
    0.2299              -36.67          1.876           48.3          58.57         -15.07          3.039          -40.1          20.49         -160.1          121.1          18.46
    0.2683              -36.66          1.876           48.3          58.57         -15.07          3.036         -40.06          20.48         -160.1          121.1          18.47
    0.3066              -36.66          1.876          48.31          58.56         -15.06          3.032         -40.01          20.48         -160.0          121.1          18.49
    0.3449              -36.65          1.876          48.31          58.56         -15.06          3.028         -39.96          20.47         -160.0          121.1           18.5
    0.3832              -36.64          1.875          48.32          58.56         -15.05          3.024          -39.9          20.46         -159.9          121.1          18.52
    0.4215              -36.64          1.875          48.32          58.56         -15.05           3.02         -39.84          20.46         -159.9          121.1          18.54
    0.4599              -36.63          1.875          48.33          58.56         -15.04          3.015         -39.78          20.45         -159.8          121.1          18.56
    0.4982              -36.62          1.875          48.34          58.56         -15.04           3.01         -39.71          20.44         -159.7          121.1          18.58
    0.5365              -36.61          1.875          48.34          58.55         -15.03          3.004         -39.63          20.43         -159.7          121.1          18.61
    0.5748               -36.6          1.875          48.35          58.55         -15.03          2.998         -39.55          20.42         -159.6          121.1          18.63
    0.6131              -36.59          1.874          48.36          58.55         -15.02          2.992         -39.46          20.41         -159.5          121.1          18.66
    0.6515              -36.58          1.874          48.37          58.55         -15.01          2.985         -39.36           20.4         -159.4          121.1          18.69
    0.6898              -36.57          1.874          48.38          58.55          -15.0          2.977         -39.26          20.38         -159.3          121.1          18.72
    0.7281              -36.56          1.874          48.39          58.54         -14.99          2.968         -39.14          20.37         -159.2          121.0          18.76
    0.7664              -36.54          1.873           48.4          58.54         -14.98          2.959         -39.02          20.35         -159.0          121.0           18.8
    0.8048              -36.52          1.873          48.41          58.54         -14.97          2.949         -38.88          20.33         -158.9          121.0          18.85
    0.8431              -36.51          1.873          48.43          58.53         -14.96          2.937         -38.72          20.31         -158.8          121.0           18.9
    0.8814              -36.49          1.872          48.44          58.53         -14.95          2.925         -38.55          20.29         -158.6          121.0          18.95
    0.9197              -36.46          1.872          48.46          58.52         -14.93          2.911         -38.36          20.27         -158.4          121.0          19.01
     0.958              -36.44          1.872          48.48          58.52         -14.91          2.895         -38.15          20.24         -158.2          121.0          19.08
    0.9964              -36.41          1.871           48.5          58.51         -14.89          2.878         -37.91          20.21         -157.9          121.0          19.15
     1.035              -36.38           1.87          48.53           58.5         -14.87          2.858         -37.64          20.18         -157.7          121.0          19.24
     1.073              -36.35           1.87          48.56           58.5         -14.85          2.836         -37.34          20.14         -157.4          121.0          19.34
     1.111              -36.31          1.869          48.59          58.49         -14.82           2.81         -36.99          20.09         -157.0          121.0          19.45
      1.15              -36.26          1.868          48.62          58.48         -14.79          2.781          -36.6          20.04         -156.6          121.0          19.57
     1.188              -36.21          1.867          48.67          58.47         -14.75          2.748         -36.15          19.98         -156.2          121.0          19.71
     1.226              -36.15          1.866          48.71          58.45         -14.71           2.71         -35.63          19.92         -155.7          120.9          19.88
     1.265              -36.08          1.865          48.77          58.44         -14.66          2.666         -35.03          19.84         -155.1          120.9          20.07
     1.303               -36.0          1.863          48.84          58.42         -14.61          2.614         -34.32          19.75         -154.3          120.9           20.3
     1.341               -35.9          1.861          48.91           58.4         -14.54          2.553         -33.49          19.64         -153.5          120.9          20.56
      1.38              -35.79          1.859          49.01          58.37         -14.46           2.48          -32.5          19.52         -152.5          120.8          20.88
     1.418              -35.65          1.857          49.12          58.34         -14.37          2.393         -31.31          19.36         -151.3          120.8          21.25
